<?xml version="1.0" encoding="UTF-8" standalone="no"?>
<!DOCTYPE svg PUBLIC "-//W3C//DTD SVG 1.1//EN" "http://www.w3.org/Graphics/SVG/1.1/DTD/svg11.dtd">
<svg width="100%" height="100%" viewBox="0 0 256 256" version="1.1" xmlns="http://www.w3.org/2000/svg" xmlns:xlink="http://www.w3.org/1999/xlink" xml:space="preserve" xmlns:serif="http://www.serif.com/" style="fill-rule:evenodd;clip-rule:evenodd;stroke-linejoin:round;stroke-miterlimit:2;">
    <path d="M236.796,48.675L12.075,69.671L12.611,205.707L246.338,184.359L236.796,48.675Z" style="fill:white;"/>
    <g transform="matrix(0.399994,0,0,0.399994,0,25.6016)">
        <path d="M621.16,54.46C582.37,38.19 543.55,32 504.75,32C381.58,31.99 258.42,94.34 135.25,94.34C104.36,94.34 73.49,90.42 42.6,80.62C39.13,79.52 35.65,79 32.25,79C15.04,79 0,92.32 0,110.81L0,428.07C0,440.7 7.23,452.67 18.84,457.53C57.63,473.81 96.45,480 135.25,480C258.42,480 381.59,417.65 504.76,417.65C535.65,417.65 566.52,421.57 597.41,431.37C600.88,432.47 604.36,432.99 607.76,432.99C624.97,432.99 640.01,419.67 640.01,401.18L640.01,83.93C640,71.29 632.77,59.33 621.16,54.46ZM592,322.05C565.11,325.45 543.42,345.36 537.62,371.53C526.82,370.61 516.06,369.65 504.75,369.65C437.19,369.65 371.62,386.24 308.22,402.29C247.86,417.57 190.85,432 135.25,432C127.23,432 119.4,431.68 111.74,431.06C110.32,396.83 82.45,369.45 48.01,369.45L48.01,192.69C79.08,192.69 104.94,170.44 110.75,140.94C118.89,141.45 126.83,142.34 135.26,142.34C202.82,142.34 268.38,125.75 331.78,109.7C392.13,94.43 449.14,80 504.75,80C515.59,80 525.97,80.78 536.17,81.91C537.02,113.87 561.04,139.75 592,143.67L592,322.05Z" style="fill:url(#_Linear1);fill-rule:nonzero;"/>
    </g>
    <g transform="matrix(0.347673,0,0,0.347673,-278.461,89.9275)">
        <g transform="matrix(1,0,0,-1,0,-87.036)">
            <path d="M1157.88,-103.134L1148,-133.746C1141.98,-152.385 1125.33,-164.487 1105.74,-164.449L1073.57,-164.387C1068.38,-164.376 1063.95,-167.583 1062.35,-172.526C1060.74,-177.469 1062.43,-182.661 1066.65,-185.709L1092.7,-204.566C1108.57,-216.049 1114.93,-235.627 1108.85,-254.242L1098.85,-284.818C1097.23,-289.759 1098.91,-294.954 1103.12,-298.009C1107.33,-301.063 1112.79,-301.057 1116.99,-297.995L1142.98,-279.036C1158.8,-267.494 1179.38,-267.494 1195.2,-279.036L1221.2,-297.995C1225.39,-301.057 1230.85,-301.063 1235.06,-298.009C1239.26,-294.954 1240.95,-289.759 1239.33,-284.818L1229.33,-254.242C1223.24,-235.627 1229.61,-216.049 1245.47,-204.566L1271.53,-185.709C1275.75,-182.661 1277.44,-177.469 1275.83,-172.526C1274.23,-167.583 1269.8,-164.376 1264.61,-164.387L1232.44,-164.449C1212.85,-164.487 1196.2,-152.385 1190.18,-133.746L1180.3,-103.134C1178.7,-98.187 1174.29,-94.973 1169.09,-94.973C1163.89,-94.973 1159.48,-98.187 1157.88,-103.134Z" style="fill:url(#_Radial2);fill-rule:nonzero;"/>
        </g>
        <g transform="matrix(0,215.195,215.195,0,1169.09,3.01318)">
            <path d="M0.054,-0.074L0.196,-0.12C0.273,-0.145 0.323,-0.213 0.323,-0.294L0.323,-0.294L0.323,-0.444L0.323,-0.444C0.323,-0.478 0.344,-0.507 0.376,-0.518C0.409,-0.528 0.443,-0.517 0.463,-0.489L0.551,-0.368C0.598,-0.303 0.679,-0.276 0.756,-0.302L0.898,-0.348C0.931,-0.359 0.965,-0.348 0.985,-0.32C0.995,-0.306 1,-0.29 1,-0.274C1,-0.258 0.995,-0.243 0.985,-0.229L0.897,-0.108C0.849,-0.042 0.849,0.042 0.897,0.108L0.985,0.229C1.005,0.256 1.005,0.292 0.985,0.32C0.965,0.348 0.931,0.359 0.898,0.348L0.756,0.302C0.679,0.276 0.598,0.303 0.551,0.368L0.463,0.489C0.443,0.517 0.409,0.528 0.376,0.518C0.344,0.507 0.323,0.478 0.323,0.444L0.323,0.444L0.323,0.294L0.323,0.294C0.323,0.213 0.273,0.145 0.196,0.12L0.054,0.074C0.021,0.063 0,0.034 0,0C0,-0.034 0.021,-0.063 0.054,-0.074ZM0.369,-0.294C0.369,-0.193 0.306,-0.107 0.21,-0.076L0.068,-0.03C0.054,-0.026 0.046,-0.014 0.046,0C0.046,0.014 0.054,0.026 0.068,0.03L0.21,0.076C0.306,0.107 0.369,0.193 0.369,0.294L0.369,0.294L0.368,0.444L0.368,0.444C0.368,0.458 0.377,0.47 0.39,0.474C0.404,0.479 0.418,0.474 0.426,0.463L0.514,0.342C0.573,0.259 0.674,0.227 0.77,0.258L0.912,0.305C0.926,0.309 0.939,0.305 0.948,0.293C0.956,0.282 0.956,0.267 0.948,0.256L0.86,0.135C0.8,0.053 0.8,-0.053 0.86,-0.135L0.948,-0.256C0.956,-0.267 0.956,-0.282 0.948,-0.293C0.939,-0.305 0.926,-0.309 0.912,-0.305L0.77,-0.258C0.674,-0.227 0.573,-0.259 0.514,-0.342L0.426,-0.463C0.418,-0.474 0.404,-0.479 0.39,-0.474C0.377,-0.47 0.368,-0.458 0.368,-0.444L0.369,-0.294Z" style="fill:url(#_Linear3);fill-rule:nonzero;"/>
        </g>
    </g>
    <defs>
        <linearGradient id="_Linear1" x1="0" y1="0" x2="1" y2="0" gradientUnits="userSpaceOnUse" gradientTransform="matrix(-320.005,3.91893e-14,-3.91893e-14,-320.005,320.005,256.96)"><stop offset="0" style="stop-color:rgb(126,208,38);stop-opacity:1"/><stop offset="1" style="stop-color:rgb(87,178,25);stop-opacity:1"/></linearGradient>
        <radialGradient id="_Radial2" cx="0" cy="0" r="1" gradientUnits="userSpaceOnUse" gradientTransform="matrix(93.341,0,0,-93.341,1169.01,-197.129)"><stop offset="0" style="stop-color:rgb(255,212,76);stop-opacity:1"/><stop offset="1" style="stop-color:rgb(255,194,0);stop-opacity:1"/></radialGradient>
        <linearGradient id="_Linear3" x1="0" y1="0" x2="1" y2="0" gradientUnits="userSpaceOnUse" gradientTransform="matrix(0.235721,-0.521746,-0.521746,-0.235721,0.499942,1.75612e-06)"><stop offset="0" style="stop-color:rgb(126,208,38);stop-opacity:1"/><stop offset="1" style="stop-color:rgb(87,178,25);stop-opacity:1"/></linearGradient>
    </defs>
</svg>
