<?xml version="1.0" encoding="utf-8"?>
<svg id="rating-2" image-rendering="auto" baseProfile="basic" version="1.1" x="0px" y="0px" width="832" height="119" xmlns="http://www.w3.org/2000/svg" xmlns:xlink="http://www.w3.org/1999/xlink">
  <defs>
    <radialGradient id="Gradient_1" gradientUnits="userSpaceOnUse" cx="0" cy="0" r="43.037" fx="0" fy="0" gradientTransform="translate(574.4 60.3)" spreadMethod="pad">
      <stop offset="0%" stop-color="#FFD44C"/>
      <stop offset="100%" stop-color="#FFC200"/>
    </radialGradient>
    <radialGradient id="Gradient_2" gradientUnits="userSpaceOnUse" cx="0" cy="0" r="43.037" fx="0" fy="0" gradientTransform="translate(445.45 60.3)" spreadMethod="pad">
      <stop offset="0%" stop-color="#FFD44C"/>
      <stop offset="100%" stop-color="#FFC200"/>
    </radialGradient>
    <radialGradient id="Gradient_3" gradientUnits="userSpaceOnUse" cx="0" cy="0" r="43.037" fx="0" fy="0" gradientTransform="translate(316.45 60.3)" spreadMethod="pad">
      <stop offset="0%" stop-color="#FFD44C"/>
      <stop offset="100%" stop-color="#FFC200"/>
    </radialGradient>
    <radialGradient id="Gradient_4" gradientUnits="userSpaceOnUse" cx="0" cy="0" r="43.037" fx="0" fy="0" gradientTransform="translate(187.5 60.3)" spreadMethod="pad">
      <stop offset="0%" stop-color="#FFD44C"/>
      <stop offset="100%" stop-color="#FFC200"/>
    </radialGradient>
    <radialGradient id="Gradient_5" gradientUnits="userSpaceOnUse" cx="0" cy="0" r="43.037" fx="0" fy="0" gradientTransform="translate(58.55 60.3)" spreadMethod="pad">
      <stop offset="0%" stop-color="#FFD44C"/>
      <stop offset="100%" stop-color="#FFC200"/>
    </radialGradient>
    <linearGradient id="Gradient_6" gradientUnits="userSpaceOnUse" x1="574.35" y1="11.562" x2="574.35" y2="109.537" spreadMethod="pad">
      <stop offset="0%" stop-color="#7ED026"/>
      <stop offset="100%" stop-color="#00AEEF"/>
    </linearGradient>
    <linearGradient id="Gradient_7" gradientUnits="userSpaceOnUse" x1="445.45" y1="11.562" x2="445.45" y2="109.537" spreadMethod="pad">
      <stop offset="0%" stop-color="#7ED026"/>
      <stop offset="100%" stop-color="#00AEEF"/>
    </linearGradient>
    <linearGradient id="Gradient_8" gradientUnits="userSpaceOnUse" x1="316.45" y1="11.562" x2="316.45" y2="109.537" spreadMethod="pad">
      <stop offset="0%" stop-color="#7ED026"/>
      <stop offset="100%" stop-color="#00AEEF"/>
    </linearGradient>
    <linearGradient id="Gradient_9" gradientUnits="userSpaceOnUse" x1="187.5" y1="11.562" x2="187.5" y2="109.537" spreadMethod="pad">
      <stop offset="0%" stop-color="#7ED026"/>
      <stop offset="100%" stop-color="#00AEEF"/>
    </linearGradient>
    <linearGradient id="Gradient_10" gradientUnits="userSpaceOnUse" x1="58.55" y1="11.512" x2="58.55" y2="109.487" spreadMethod="pad">
      <stop offset="0%" stop-color="#7ED026"/>
      <stop offset="100%" stop-color="#00AEEF"/>
    </linearGradient>
  </defs>
  <g id="Scene-1-copy" overflow="visible">
    <g mask="url(#mask_)">
      <g>
        <g transform="matrix(.981 0 0 .981 0 0)">
          <g id="Layer7_0_FILL">
            <path fill="url(#Gradient_5)" stroke="none" d="M108.45 48.85Q107.9 47.15 106.45 46.05 105 45.05 103.2 45.05L88.2 45.1Q81.3 45.1 75.9 41.15 70.6 37.3 68.4 30.7L63.8 16.45Q63.25 14.75 61.85 13.65 60.4 12.6 58.55 12.6 56.75 12.6 55.35 13.65 53.9 14.75 53.35 16.45L48.7 30.7Q46.6 37.3 41.25 41.15 35.85 45.1 29 45.1L14 45.05Q12.2 45.05 10.7 46.05 9.3 47.15 8.75 48.85 8.15 50.6 8.7 52.25 9.25 53.9 10.75 55L22.9 63.8Q28.45 67.85 30.5 74.15 32.65 80.5 30.45 87L25.75 101.3Q25.2 103.05 25.75 104.7 26.3 106.4 27.75 107.45 29.25 108.55 31 108.55 32.75 108.55 34.25 107.45L46.4 98.6Q51.95 94.55 58.55 94.55 65.25 94.55 70.8 98.6L82.95 107.45Q84.4 108.55 86.15 108.55 87.95 108.55 89.4 107.45 90.9 106.4 91.4 104.7 91.95 103.05 91.35 101.3L86.7 87Q84.6 80.5 86.65 74.15 88.7 67.85 94.25 63.8L106.45 55Q107.9 53.9 108.45 52.25 109 50.6 108.45 48.85Z"/>
          </g>
        </g>
        <g transform="matrix(.981 0 0 .981 0 0)">
          <g id="Layer8_0_FILL">
            <path fill="url(#Gradient_4)" stroke="none" d="M237.4 48.85Q236.85 47.15 235.4 46.05 233.95 45.05 232.15 45.05L217.15 45.1Q210.25 45.1 204.85 41.15 199.55 37.3 197.35 30.7L192.75 16.45Q192.2 14.75 190.8 13.65 189.35 12.6 187.5 12.6 185.7 12.6 184.3 13.65 182.85 14.75 182.3 16.45L177.65 30.7Q175.55 37.3 170.2 41.15 164.8 45.1 157.95 45.1L142.95 45.05Q141.15 45.05 139.65 46.05 138.25 47.15 137.7 48.85 137.1 50.6 137.65 52.25 138.2 53.9 139.7 55L151.85 63.8Q157.4 67.85 159.45 74.15 161.6 80.5 159.4 87L154.7 101.3Q154.15 103.05 154.7 104.7 155.25 106.4 156.7 107.45 158.2 108.55 159.95 108.55 161.7 108.55 163.2 107.45L175.35 98.6Q180.9 94.55 187.5 94.55 194.2 94.55 199.75 98.6L211.9 107.45Q213.35 108.55 215.1 108.55 216.9 108.55 218.35 107.45 219.85 106.4 220.35 104.7 220.9 103.05 220.3 101.3L215.65 87Q213.55 80.5 215.6 74.15 217.65 67.85 223.2 63.8L235.4 55Q236.85 53.9 237.4 52.25 237.95 50.6 237.4 48.85Z"/>
          </g>
        </g>
        <g transform="matrix(.981 0 0 .981 0 0)">
          <g id="Layer9_0_FILL">
            <path fill="url(#Gradient_3)" stroke="none" d="M364.35 46.05Q362.9 45.05 361.1 45.05L346.1 45.1Q339.2 45.1 333.8 41.15 328.5 37.3 326.3 30.7L321.7 16.45Q321.15 14.75 319.75 13.65 318.3 12.6 316.45 12.6 314.65 12.6 313.25 13.65 311.8 14.75 311.25 16.45L306.6 30.7Q304.5 37.3 299.15 41.15 293.75 45.1 286.9 45.1L271.9 45.05Q270.1 45.05 268.6 46.05 267.2 47.15 266.65 48.85 266.05 50.6 266.6 52.25 267.15 53.9 268.65 55L280.8 63.8Q286.35 67.85 288.4 74.15 290.55 80.5 288.35 87L283.65 101.3Q283.1 103.05 283.65 104.7 284.2 106.4 285.65 107.45 287.15 108.55 288.9 108.55 290.65 108.55 292.15 107.45L304.3 98.6Q309.85 94.55 316.45 94.55 323.15 94.55 328.7 98.6L340.85 107.45Q342.3 108.55 344.05 108.55 345.85 108.55 347.3 107.45 348.8 106.4 349.3 104.7 349.85 103.05 349.25 101.3L344.6 87Q342.5 80.5 344.55 74.15 346.6 67.85 352.15 63.8L364.35 55Q365.8 53.9 366.35 52.25 366.9 50.6 366.35 48.85 365.8 47.15 364.35 46.05Z"/>
          </g>
        </g>
        <g transform="matrix(.981 0 0 .981 0 0)">
          <g id="Layer10_0_FILL">
            <path fill="url(#Gradient_2)" stroke="none" d="M495.35 48.85Q494.8 47.15 493.35 46.05 491.9 45.05 490.1 45.05L475.1 45.1Q468.2 45.1 462.8 41.15 457.5 37.3 455.3 30.7L450.7 16.45Q450.15 14.75 448.75 13.65 447.3 12.6 445.45 12.6 443.65 12.6 442.25 13.65 440.8 14.75 440.25 16.45L435.6 30.7Q433.5 37.3 428.15 41.15 422.75 45.1 415.9 45.1L400.9 45.05Q399.1 45.05 397.6 46.05 396.2 47.15 395.65 48.85 395.05 50.6 395.6 52.25 396.15 53.9 397.65 55L409.8 63.8Q415.35 67.85 417.4 74.15 419.55 80.5 417.35 87L412.65 101.3Q412.1 103.05 412.65 104.7 413.2 106.4 414.65 107.45 416.15 108.55 417.9 108.55 419.65 108.55 421.15 107.45L433.3 98.6Q438.85 94.55 445.45 94.55 452.15 94.55 457.7 98.6L469.85 107.45Q471.3 108.55 473.05 108.55 474.85 108.55 476.3 107.45 477.8 106.4 478.3 104.7 478.85 103.05 478.25 101.3L473.6 87Q471.5 80.5 473.55 74.15 475.6 67.85 481.15 63.8L493.35 55Q494.8 53.9 495.35 52.25 495.9 50.6 495.35 48.85Z"/>
          </g>
        </g>
        <g transform="matrix(.981 0 0 .981 0 0)">
          <g id="Layer11_0_FILL">
            <path fill="url(#Gradient_1)" stroke="none" d="M624.3 48.85Q623.75 47.15 622.3 46.05 620.85 45.05 619.05 45.05L604.05 45.1Q597.15 45.1 591.75 41.15 586.45 37.3 584.25 30.7L579.65 16.45Q579.1 14.75 577.7 13.65 576.25 12.6 574.4 12.6 572.6 12.6 571.2 13.65 569.75 14.75 569.2 16.45L564.55 30.7Q562.45 37.3 557.1 41.15 551.7 45.1 544.85 45.1L529.85 45.05Q528.05 45.05 526.55 46.05 525.15 47.15 524.6 48.85 524 50.6 524.55 52.25 525.1 53.9 526.6 55L538.75 63.8Q544.3 67.85 546.35 74.15 548.5 80.5 546.3 87L541.6 101.3Q541.05 103.05 541.6 104.7 542.15 106.4 543.6 107.45 545.1 108.55 546.85 108.55 548.6 108.55 550.1 107.45L562.25 98.6Q567.8 94.55 574.4 94.55 581.1 94.55 586.65 98.6L598.8 107.45Q600.25 108.55 602 108.55 603.8 108.55 605.25 107.45 606.75 106.4 607.25 104.7 607.8 103.05 607.2 101.3L602.55 87Q600.45 80.5 602.5 74.15 604.55 67.85 610.1 63.8L622.3 55Q623.75 53.9 624.3 52.25 624.85 50.6 624.3 48.85Z"/>
          </g>
        </g>
      </g>
    </g>
    <mask id="mask_">
      <g>
        <g id="Tween-1" transform="translate(-109.5 62.65)">
          <animateTransform attributeName="transform" additive="replace" type="translate" repeatCount="indefinite" dur="8.542s" keyTimes="0;.122;.322;.463;.507;.634;1" values="-109.5,62.65;-81.35,62.65;.25,62.65;179.8,62.65;241.35,62.65;270.4,64.2;270.4,64.2"/>
          <g id="Tween 1_0.0">
            <g>
              <g id="Layer24_0_FILL">
                <path fill="#FFF" stroke="none" d="M315.8 56.35L315.8 -56.35 -315.8 -56.35 -315.8 56.35 315.8 56.35Z" fill-opacity="1"/>
              </g>
            </g>
          </g>
        </g>
      </g>
    </mask>
    <g>
      <g transform="matrix(.981 0 0 .981 0 0)">
        <g id="Layer2_0_FILL">
          <path fill="url(#Gradient_10)" stroke="none" d="M110.65 48.1Q109.8 45.65 107.8 44.15 105.8 42.7 103.2 42.7L88.15 42.75Q82.05 42.75 77.25 39.25 72.5 35.8 70.65 30L66 15.65Q65.2 13.2 63.2 11.75 61.15 10.25 58.55 10.25 56 10.25 54 11.75 52 13.2 51.15 15.65L46.55 30Q44.7 35.8 39.95 39.25 35.2 42.75 29.05 42.75L13.95 42.7Q11.4 42.7 9.4 44.15 7.35 45.65 6.55 48.1 5.75 50.55 6.5 52.95 7.25 55.3 9.4 56.8L21.55 65.65Q26.5 69.25 28.35 74.85 30.15 80.5 28.25 86.3L23.6 100.55Q22.8 103 23.55 105.4 24.35 107.75 26.4 109.25 28.5 110.8 31 110.8 33.5 110.8 35.6 109.25L47.75 100.4Q52.7 96.8 58.6 96.8 64.5 96.8 69.45 100.4L81.55 109.25Q83.65 110.8 86.15 110.8 88.6 110.8 90.75 109.25 92.85 107.75 93.65 105.4 94.4 103 93.6 100.55L88.9 86.3Q87 80.5 88.8 74.85 90.65 69.25 95.6 65.65L107.8 56.8Q109.9 55.3 110.65 52.95 111.45 50.6 110.65 48.1M88.15 47.35L103.2 47.3Q105.6 47.3 106.3 49.5 106.6 50.55 106.3 51.5 105.95 52.45 105.1 53.1L92.95 61.9Q86.7 66.4 84.45 73.45 82.15 80.45 84.55 87.7L89.2 101.95Q89.55 103 89.2 104 88.9 104.9 88.05 105.55 87.15 106.2 86.15 106.2 85.15 106.2 84.25 105.55L72.15 96.65Q65.95 92.2 58.6 92.2 51.2 92.2 45.05 96.65L32.85 105.55Q32.05 106.2 31 106.2 30 106.2 29.15 105.55 28.25 104.9 27.95 104 27.6 103 27.95 101.95L32.65 87.7Q35.05 80.45 32.7 73.45 30.45 66.4 24.25 61.9L12.1 53.1Q11.2 52.45 10.9 51.5 10.55 50.55 10.9 49.5 11.25 48.45 12.1 47.9 12.85 47.3 13.95 47.3L29.05 47.35Q36.65 47.35 42.65 43 48.55 38.65 50.9 31.4L55.55 17.1Q55.85 16.05 56.7 15.45 57.5 14.9 58.55 14.9 60.95 14.9 61.65 17.1L66.25 31.4Q68.55 38.65 74.55 43 80.55 47.35 88.15 47.35Z"/>
        </g>
      </g>
      <g transform="matrix(.981 0 0 .981 0 0)">
        <g id="Layer3_0_FILL">
          <path fill="url(#Gradient_9)" stroke="none" d="M239.6 48.15Q238.75 45.7 236.75 44.2 234.75 42.75 232.15 42.75L217.1 42.8Q211 42.8 206.2 39.3 201.45 35.85 199.6 30.05L194.95 15.7Q194.15 13.25 192.15 11.8 190.1 10.3 187.5 10.3 184.95 10.3 182.95 11.8 180.95 13.25 180.1 15.7L175.5 30.05Q173.65 35.85 168.9 39.3 164.15 42.8 158 42.8L142.9 42.75Q140.35 42.75 138.35 44.2 136.3 45.7 135.5 48.15 134.7 50.6 135.45 53 136.2 55.35 138.35 56.85L150.5 65.7Q155.45 69.3 157.3 74.9 159.1 80.55 157.2 86.35L152.55 100.6Q151.75 103.05 152.5 105.45 153.3 107.8 155.35 109.3 157.45 110.85 159.95 110.85 162.45 110.85 164.55 109.3L176.7 100.45Q181.65 96.85 187.55 96.85 193.45 96.85 198.4 100.45L210.5 109.3Q212.6 110.85 215.1 110.85 217.55 110.85 219.7 109.3 221.8 107.8 222.6 105.45 223.35 103.05 222.55 100.6L217.85 86.35Q215.95 80.55 217.75 74.9 219.6 69.3 224.55 65.7L236.75 56.85Q238.85 55.35 239.6 53 240.4 50.65 239.6 48.15M217.1 47.4L232.15 47.35Q234.55 47.35 235.25 49.55 235.55 50.6 235.25 51.55 234.9 52.5 234.05 53.15L221.9 61.95Q215.65 66.45 213.4 73.5 211.1 80.5 213.5 87.75L218.15 102Q218.5 103.05 218.15 104.05 217.85 104.95 217 105.6 216.1 106.25 215.1 106.25 214.1 106.25 213.2 105.6L201.1 96.7Q194.9 92.25 187.55 92.25 180.15 92.25 174 96.7L161.8 105.6Q161 106.25 159.95 106.25 158.95 106.25 158.1 105.6 157.2 104.95 156.9 104.05 156.55 103.05 156.9 102L161.6 87.75Q164 80.5 161.65 73.5 159.4 66.45 153.2 61.95L141.05 53.15Q140.15 52.5 139.85 51.55 139.5 50.6 139.85 49.55 140.2 48.5 141.05 47.95 141.8 47.35 142.9 47.35L158 47.4Q165.6 47.4 171.6 43.05 177.5 38.7 179.85 31.45L184.5 17.15Q184.8 16.1 185.65 15.5 186.45 14.95 187.5 14.95 189.9 14.95 190.6 17.15L195.2 31.45Q197.5 38.7 203.5 43.05 209.5 47.4 217.1 47.4Z"/>
        </g>
      </g>
      <g transform="matrix(.981 0 0 .981 0 0)">
        <g id="Layer4_0_FILL">
          <path fill="url(#Gradient_8)" stroke="none" d="M368.55 48.15Q367.7 45.7 365.7 44.2 363.7 42.75 361.1 42.75L346.05 42.8Q339.95 42.8 335.15 39.3 330.4 35.85 328.55 30.05L323.9 15.7Q323.1 13.25 321.1 11.8 319.05 10.3 316.45 10.3 313.9 10.3 311.9 11.8 309.9 13.25 309.05 15.7L304.45 30.05Q302.6 35.85 297.85 39.3 293.1 42.8 286.95 42.8L271.85 42.75Q269.3 42.75 267.3 44.2 265.25 45.7 264.45 48.15 263.65 50.6 264.4 53 265.15 55.35 267.3 56.85L279.45 65.7Q284.4 69.3 286.25 74.9 288.05 80.55 286.15 86.35L281.5 100.6Q280.7 103.05 281.45 105.45 282.25 107.8 284.3 109.3 286.4 110.85 288.9 110.85 291.4 110.85 293.5 109.3L305.65 100.45Q310.6 96.85 316.5 96.85 322.4 96.85 327.35 100.45L339.45 109.3Q341.55 110.85 344.05 110.85 346.5 110.85 348.65 109.3 350.75 107.8 351.55 105.45 352.3 103.05 351.5 100.6L346.8 86.35Q344.9 80.55 346.7 74.9 348.55 69.3 353.5 65.7L365.7 56.85Q367.8 55.35 368.55 53 369.35 50.65 368.55 48.15M324.15 31.45Q326.45 38.7 332.45 43.05 338.45 47.4 346.05 47.4L361.1 47.35Q363.5 47.35 364.2 49.55 364.5 50.6 364.2 51.55 363.85 52.5 363 53.15L350.85 61.95Q344.6 66.45 342.35 73.5 340.05 80.5 342.45 87.75L347.1 102Q347.45 103.05 347.1 104.05 346.8 104.95 345.95 105.6 345.05 106.25 344.05 106.25 343.05 106.25 342.15 105.6L330.05 96.7Q323.85 92.25 316.5 92.25 309.1 92.25 302.95 96.7L290.75 105.6Q289.95 106.25 288.9 106.25 287.9 106.25 287.05 105.6 286.15 104.95 285.85 104.05 285.5 103.05 285.85 102L290.55 87.75Q292.95 80.5 290.6 73.5 288.35 66.45 282.15 61.95L270 53.15Q269.1 52.5 268.8 51.55 268.45 50.6 268.8 49.55 269.15 48.5 270 47.95 270.75 47.35 271.85 47.35L286.95 47.4Q294.55 47.4 300.55 43.05 306.45 38.7 308.8 31.45L313.45 17.15Q313.75 16.1 314.6 15.5 315.4 14.95 316.45 14.95 318.85 14.95 319.55 17.15L324.15 31.45Z"/>
        </g>
      </g>
      <g transform="matrix(.981 0 0 .981 0 0)">
        <g id="Layer5_0_FILL">
          <path fill="url(#Gradient_7)" stroke="none" d="M497.55 48.15Q496.7 45.7 494.7 44.2 492.7 42.75 490.1 42.75L475.05 42.8Q468.95 42.8 464.15 39.3 459.4 35.85 457.55 30.05L452.9 15.7Q452.1 13.25 450.1 11.8 448.05 10.3 445.45 10.3 442.9 10.3 440.9 11.8 438.9 13.25 438.05 15.7L433.45 30.05Q431.6 35.85 426.85 39.3 422.1 42.8 415.95 42.8L400.85 42.75Q398.3 42.75 396.3 44.2 394.25 45.7 393.45 48.15 392.65 50.6 393.4 53 394.15 55.35 396.3 56.85L408.45 65.7Q413.4 69.3 415.25 74.9 417.05 80.55 415.15 86.35L410.5 100.6Q409.7 103.05 410.45 105.45 411.25 107.8 413.3 109.3 415.4 110.85 417.9 110.85 420.4 110.85 422.5 109.3L434.65 100.45Q439.6 96.85 445.5 96.85 451.4 96.85 456.35 100.45L468.45 109.3Q470.55 110.85 473.05 110.85 475.5 110.85 477.65 109.3 479.75 107.8 480.55 105.45 481.3 103.05 480.5 100.6L475.8 86.35Q473.9 80.55 475.7 74.9 477.55 69.3 482.5 65.7L494.7 56.85Q496.8 55.35 497.55 53 498.35 50.65 497.55 48.15M493.2 51.55Q492.85 52.5 492 53.15L479.85 61.95Q473.6 66.45 471.35 73.5 469.05 80.5 471.45 87.75L476.1 102Q476.45 103.05 476.1 104.05 475.8 104.95 474.95 105.6 474.05 106.25 473.05 106.25 472.05 106.25 471.15 105.6L459.05 96.7Q452.85 92.25 445.5 92.25 438.1 92.25 431.95 96.7L419.75 105.6Q418.95 106.25 417.9 106.25 416.9 106.25 416.05 105.6 415.15 104.95 414.85 104.05 414.5 103.05 414.85 102L419.55 87.75Q421.95 80.5 419.6 73.5 417.35 66.45 411.15 61.95L399 53.15Q398.1 52.5 397.8 51.55 397.45 50.6 397.8 49.55 398.15 48.5 399 47.95 399.75 47.35 400.85 47.35L415.95 47.4Q423.55 47.4 429.55 43.05 435.45 38.7 437.8 31.45L442.45 17.15Q442.75 16.1 443.6 15.5 444.4 14.95 445.45 14.95 447.85 14.95 448.55 17.15L453.15 31.45Q455.45 38.7 461.45 43.05 467.45 47.4 475.05 47.4L490.1 47.35Q492.5 47.35 493.2 49.55 493.5 50.6 493.2 51.55Z"/>
        </g>
      </g>
      <g transform="matrix(.981 0 0 .981 0 0)">
        <g id="Layer6_0_FILL">
          <path fill="url(#Gradient_6)" stroke="none" d="M626.45 48.15Q625.6 45.7 623.6 44.2 621.6 42.75 619 42.75L603.95 42.8Q597.85 42.8 593.05 39.3 588.3 35.85 586.45 30.05L581.8 15.7Q581 13.25 579 11.8 576.95 10.3 574.35 10.3 571.8 10.3 569.8 11.8 567.8 13.25 566.95 15.7L562.35 30.05Q560.5 35.85 555.75 39.3 551 42.8 544.85 42.8L529.75 42.75Q527.2 42.75 525.2 44.2 523.15 45.7 522.35 48.15 521.55 50.6 522.3 53 523.05 55.35 525.2 56.85L537.35 65.7Q542.3 69.3 544.15 74.9 545.95 80.55 544.05 86.35L539.4 100.6Q538.6 103.05 539.35 105.45 540.15 107.8 542.2 109.3 544.3 110.85 546.8 110.85 549.3 110.85 551.4 109.3L563.55 100.45Q568.5 96.85 574.4 96.85 580.3 96.85 585.25 100.45L597.35 109.3Q599.45 110.85 601.95 110.85 604.4 110.85 606.55 109.3 608.65 107.8 609.45 105.45 610.2 103.05 609.4 100.6L604.7 86.35Q602.8 80.55 604.6 74.9 606.45 69.3 611.4 65.7L623.6 56.85Q625.7 55.35 626.45 53 627.25 50.65 626.45 48.15M574.35 14.95Q576.75 14.95 577.45 17.15L582.05 31.45Q584.35 38.7 590.35 43.05 596.35 47.4 603.95 47.4L619 47.35Q621.4 47.35 622.1 49.55 622.4 50.6 622.1 51.55 621.75 52.5 620.9 53.15L608.75 61.95Q602.5 66.45 600.25 73.5 597.95 80.5 600.35 87.75L605 102Q605.35 103.05 605 104.05 604.7 104.95 603.85 105.6 602.95 106.25 601.95 106.25 600.95 106.25 600.05 105.6L587.95 96.7Q581.75 92.25 574.4 92.25 567 92.25 560.85 96.7L548.65 105.6Q547.85 106.25 546.8 106.25 545.8 106.25 544.95 105.6 544.05 104.95 543.75 104.05 543.4 103.05 543.75 102L548.45 87.75Q550.85 80.5 548.5 73.5 546.25 66.45 540.05 61.95L527.9 53.15Q527 52.5 526.7 51.55 526.35 50.6 526.7 49.55 527.05 48.5 527.9 47.95 528.65 47.35 529.75 47.35L544.85 47.4Q552.45 47.4 558.45 43.05 564.35 38.7 566.7 31.45L571.35 17.15Q571.65 16.1 572.5 15.5 573.3 14.95 574.35 14.95Z"/>
        </g>
      </g>
    </g>
    <g id="Symbol-2" transform="matrix(.669 0 0 .669 515.9 -22)">
      <g display="none">
        <g id="Symbol-1f4o129" transform="translate(350.15 -25.8)">
          <g id="Symbol 1_0.4">
            <g>
              <g id="Layer38_0_FILL">
                <path fill="#E96E48" stroke="none" d="M37.8 72.6Q17.9 72.6 5.9 83.3 -6.25 93.9 -6.25 113.5 -6.25 125.1 .05 133.9 6.4 142.55 17.5 146.85 4.65 151.35 -2.9 160.9 -10.45 170.5 -10.45 183.05 -10.45 203.65 2.9 214.6 16.2 225.4 38 225.4 59.45 225.4 72.9 214.6 86.25 203.65 86.25 183.05 86.25 170.5 78.6 160.9 70.85 151.35 58 146.85 69.1 142.55 75.65 133.9 82.2 125.1 82.2 113.5 82.2 93.9 69.85 83.3 57.4 72.6 37.8 72.6M20.45 95.45Q27.1 88.4 37.8 88.4 48.3 88.4 55.25 95.65 62.1 102.9 62.1 113.9 62.1 125.2 55.35 132.05 48.6 138.9 38 138.9 27.2 138.9 20.55 132.05 13.85 125.2 13.85 113.9 13.85 102.35 20.45 95.45M17.5 162.55Q25.25 154.7 37.8 154.7 50.15 154.7 58.2 162.55 66.25 170.4 66.25 182.55 66.25 195.1 58.4 202.35 50.55 209.6 38 209.6 25.15 209.6 17.4 202.45 9.65 195.2 9.65 182.55 9.65 170.4 17.5 162.55Z"/>
              </g>
            </g>
          </g>
        </g>
        <animate attributeName="display" repeatCount="indefinite" dur="8.542s" keyTimes="0;.629;1" values="none;inline;inline"/>
      </g>
      <g display="none">
        <g id="Symbol-1f2o119" transform="translate(350.15 -25.8)">
          <g id="Symbol 1_0.2">
            <g>
              <g id="Layer37_0_FILL">
                <path fill="#E96E48" stroke="none" d="M87.5 90.55L87.5 74.75 -13 74.75 -13 90.55 67.8 90.55Q46.35 116.85 34.05 144.5 21.7 172.15 17.4 207.25L15.75 223.25 35.85 223.25 37.5 207.25Q41.7 172.05 51.15 147.35 60.55 122.55 87.5 90.55Z"/>
              </g>
            </g>
          </g>
        </g>
        <animate attributeName="display" repeatCount="indefinite" dur="8.542s" keyTimes="0;.58;.629;1" values="none;inline;none;none"/>
      </g>
      <g display="none">
        <g id="Symbol-1f0o110" transform="translate(350.15 -25.8)">
          <g id="Symbol 1_0.0">
            <g>
              <g id="Layer36_0_FILL">
                <path fill="#E96E48" stroke="none" d="M75.55 78.7Q70.65 76.05 63.2 74.3 55.65 72.6 48 72.6 24.45 72.6 8.55 90.35 -7.4 108.1 -7.4 136.65L-7.4 165Q-7.4 193.75 6.9 209.6 21.2 225.4 43 225.4 64 225.4 76.65 210.9 89.2 196.3 89.2 173.25 89.2 152.15 77.4 138.4 65.55 124.6 45.65 124.6 35.95 124.6 27.6 127.85 19.15 131.05 12.6 136.75L12.6 134.4Q12.6 113.9 22.4 101.15 32.1 88.4 48 88.4 55.35 88.4 60.85 90.05 66.25 91.55 71.25 94.1L75.55 78.7M12.6 166.95L12.6 154.9Q16.4 147.95 23.65 143.8 30.85 139.6 41.15 139.6 54.35 139.6 61.8 149.1 69.1 158.6 69.1 173.25 69.1 188.65 62.3 199.2 55.35 209.6 43 209.6 29.95 209.6 21.3 198.45 12.6 187.35 12.6 166.95Z"/>
              </g>
            </g>
          </g>
        </g>
        <animate attributeName="display" repeatCount="indefinite" dur="8.542s" keyTimes="0;.537;.58;1" values="none;inline;none;none"/>
      </g>
      <g display="none">
        <g id="Symbol-1f18o104" transform="translate(350.15 -25.8)">
          <g id="Symbol 1_0.18">
            <g>
              <g id="Layer35_0_FILL">
                <path fill="#E96E48" stroke="none" d="M79.95 92.6L79.95 74.75 5.55 74.75 -3 156.25 13.75 157.95Q16.2 150.6 21.5 147.05 26.8 143.5 38.6 143.5 51.15 143.5 58.3 152.65 65.45 161.85 65.45 176.1 65.45 191.65 58.4 200.6 51.35 209.6 38.6 209.6 27.5 209.6 20.55 202.95 13.55 196.3 13.55 184.2L-4.65 184.2 -4.85 184.8Q-5.35 204.8 7.2 215.1 19.75 225.4 38.6 225.4 61.55 225.4 73.6 211.85 85.55 198.25 85.55 175.9 85.55 152.95 73.8 139.4 62 125.85 41.5 126.05 33.95 126.25 28.2 128.6 22.4 130.85 17.7 134.3L22.6 92.6 79.95 92.6Z"/>
              </g>
            </g>
          </g>
        </g>
        <animate attributeName="display" repeatCount="indefinite" dur="8.542s" keyTimes="0;.507;.537;1" values="none;inline;none;none"/>
      </g>
      <g display="none">
        <g id="Symbol-3" transform="translate(350.15 -25.8)">
          <g display="none">
            <g>
              <g id="Layer34_0_FILL">
                <path fill="#E96E48" stroke="none" d="M79.95 92.6L79.95 74.75 5.55 74.75 -3 156.25 13.75 157.95Q16.2 150.6 21.5 147.05 26.8 143.5 38.6 143.5 51.15 143.5 58.3 152.65 65.45 161.85 65.45 176.1 65.45 191.65 58.4 200.6 51.35 209.6 38.6 209.6 27.5 209.6 20.55 202.95 13.55 196.3 13.55 184.2L-4.65 184.2 -4.85 184.8Q-5.35 204.8 7.2 215.1 19.75 225.4 38.6 225.4 61.55 225.4 73.6 211.85 85.55 198.25 85.55 175.9 85.55 152.95 73.8 139.4 62 125.85 41.5 126.05 33.95 126.25 28.2 128.6 22.4 130.85 17.7 134.3L22.6 92.6 79.95 92.6Z"/>
              </g>
            </g>
            <animate attributeName="display" begin="2.792s" repeatCount="indefinite" dur="0.833s" keyTimes="0;.9;1" values="none;inline;inline"/>
          </g>
          <g display="none">
            <g>
              <g id="Layer33_0_FILL">
                <path fill="#E96E48" stroke="none" d="M71.45 74.75L50.25 74.75 -15.25 177.75 -15.25 189.1 51.45 189.1 51.45 223.25 71.45 223.25 71.45 189.1 91.95 189.1 91.95 173.25 71.45 173.25 71.45 74.75M50.85 103.5L51.45 103.6 51.45 173.25 6.2 173.25 48.9 108.6 50.85 103.5Z"/>
              </g>
            </g>
            <animate attributeName="display" begin="2.792s" repeatCount="indefinite" dur="0.833s" keyTimes="0;.8;.9;1" values="none;inline;none;none"/>
          </g>
          <g display="none">
            <g>
              <g id="Layer32_0_FILL">
                <path fill="#E96E48" stroke="none" d="M17 95.35Q24.05 88.4 35.75 88.4 48.1 88.4 54.45 95 60.75 101.65 60.75 114.4 60.75 126.35 55.25 133.05 49.65 139.7 36.25 139.7L18.75 139.7 18.75 155.5 36.25 155.5Q50.15 155.5 56.55 162.05 63 168.55 63 182.25 63 195.8 55.75 202.65 48.5 209.6 35.75 209.6 23.2 209.6 16.1 202.65 8.85 195.8 8.85 184.1L-10.35 184.1 -10.65 184.7Q-11.15 203.45 2.2 214.5 15.45 225.4 35.75 225.4 56.45 225.4 69.85 213.75 83.1 202.15 83.1 181.85 83.1 170.2 77.6 160.8 72 151.45 58.6 147.05 69.75 142.25 75.35 133.2 80.85 124 80.85 114.8 80.85 94.5 68.6 83.6 56.35 72.6 35.75 72.6 15.25 72.6 2.6 84.4 -10.15 96.15 -9.65 113L-9.45 113.6 9.85 113.6Q9.85 102.15 17 95.35Z"/>
              </g>
            </g>
            <animate attributeName="display" begin="2.792s" repeatCount="indefinite" dur="0.833s" keyTimes="0;.7;.8;1" values="none;inline;none;none"/>
          </g>
          <g display="none">
            <g>
              <g id="Layer31_0_FILL">
                <path fill="#E96E48" stroke="none" d="M15.85 96.35Q23.1 88.4 38.5 88.4 49.25 88.4 55.75 96.05 62.2 103.6 62.2 114.7 62.2 123.7 57.6 132.25 52.9 140.85 39.85 155.4L-8.8 209.4 -8.8 223.25 87.5 223.25 87.5 207.45 16.1 207.45 15.85 206.95 54.95 164.5Q67.9 150.5 75.15 138.4 82.3 126.15 82.3 114 82.3 95.95 70.45 84.3 58.5 72.6 38.5 72.6 15.05 72.6 1.8 85.65 -11.45 98.7 -10.95 117.85L-10.75 118.5 8.55 118.5Q8.55 104.2 15.85 96.35Z"/>
              </g>
            </g>
            <animate attributeName="display" begin="2.792s" repeatCount="indefinite" dur="0.833s" keyTimes="0;.6;.7;1" values="none;inline;none;none"/>
          </g>
          <g display="none">
            <g>
              <g id="Layer30_0_FILL">
                <path fill="#E96E48" stroke="none" d="M28.5 223.25L48.6 223.25 48.6 74.75 -1.9 80.25 -1.9 94.7 28.5 94.3 28.5 223.25Z"/>
              </g>
            </g>
            <animate attributeName="display" begin="2.792s" repeatCount="indefinite" dur="0.833s" keyTimes="0;.5;.6;1" values="none;inline;none;none"/>
          </g>
          <g display="none">
            <g>
              <g id="Layer29_0_FILL">
                <path fill="#E96E48" stroke="none" d="M37.9 72.6Q16.1 72.6 3.45 87.9 -9.3 103.1 -9.3 131.45L-9.3 166.65Q-9.3 195 3.45 210.2 16.2 225.4 38.1 225.4 60.05 225.4 72.7 210.3 85.25 195.1 85.25 166.65L85.25 131.45Q85.25 103.1 72.6 87.9 59.85 72.6 37.9 72.6M17.7 98.1Q24.65 88.4 37.9 88.4 51.15 88.4 58.2 98.1 65.15 107.9 65.15 127.15L65.15 170.6Q65.15 190 58.3 199.8 51.35 209.6 38.1 209.6 24.85 209.6 17.8 199.8 10.75 189.9 10.75 170.6L10.75 127.15Q10.75 107.9 17.7 98.1Z"/>
              </g>
            </g>
            <animate attributeName="display" begin="2.792s" repeatCount="indefinite" dur="0.833s" keyTimes="0;.4;.5;1" values="none;inline;none;none"/>
          </g>
          <g display="none">
            <g>
              <g id="Layer28_0_FILL">
                <path fill="#E96E48" stroke="none" d="M33.6 72.6Q14.45 72.6 1.1 86.85 -12.4 101.15 -12.4 123.5 -12.4 146.85 .25 160.2 12.9 173.45 34.45 173.45 43.6 173.45 51.15 169.8 58.6 166 63.6 158.8L63.6 165.5Q63.6 187.45 54.85 198.45 45.95 209.6 31.3 209.6 22.8 209.6 16.4 208.35 9.85 207.05 3.85 203.85L.8 219.35Q7.2 222.45 15.35 223.85 23.4 225.4 31.3 225.4 54.65 225.4 69.2 209.9 83.7 194.4 83.7 165.3L83.7 129.9Q83.7 101.65 70.35 87.15 56.9 72.6 33.6 72.6M15.45 98.2Q23.2 88.4 34.25 88.4 48.6 88.4 56.15 98.4 63.6 108.4 63.6 127.75L63.6 140.6Q60.35 148.05 53 152.85 45.55 157.65 34.45 157.65 22.1 157.65 14.95 148.15 7.7 138.7 7.7 123.5 7.7 108.1 15.45 98.2Z"/>
              </g>
            </g>
            <animate attributeName="display" begin="2.792s" repeatCount="indefinite" dur="0.833s" keyTimes="0;.3;.4;1" values="none;inline;none;none"/>
          </g>
          <g display="none">
            <g>
              <g id="Layer27_0_FILL">
                <path fill="#E96E48" stroke="none" d="M37.8 72.6Q17.9 72.6 5.9 83.3 -6.25 93.9 -6.25 113.5 -6.25 125.1 .05 133.9 6.4 142.55 17.5 146.85 4.65 151.35 -2.9 160.9 -10.45 170.5 -10.45 183.05 -10.45 203.65 2.9 214.6 16.2 225.4 38 225.4 59.45 225.4 72.9 214.6 86.25 203.65 86.25 183.05 86.25 170.5 78.6 160.9 70.85 151.35 58 146.85 69.1 142.55 75.65 133.9 82.2 125.1 82.2 113.5 82.2 93.9 69.85 83.3 57.4 72.6 37.8 72.6M20.45 95.45Q27.1 88.4 37.8 88.4 48.3 88.4 55.25 95.65 62.1 102.9 62.1 113.9 62.1 125.2 55.35 132.05 48.6 138.9 38 138.9 27.2 138.9 20.55 132.05 13.85 125.2 13.85 113.9 13.85 102.35 20.45 95.45M17.5 162.55Q25.25 154.7 37.8 154.7 50.15 154.7 58.2 162.55 66.25 170.4 66.25 182.55 66.25 195.1 58.4 202.35 50.55 209.6 38 209.6 25.15 209.6 17.4 202.45 9.65 195.2 9.65 182.55 9.65 170.4 17.5 162.55Z"/>
              </g>
            </g>
            <animate attributeName="display" begin="2.792s" repeatCount="indefinite" dur="0.833s" keyTimes="0;.2;.3;1" values="none;inline;none;none"/>
          </g>
          <g display="none">
            <g>
              <g id="Layer26_0_FILL">
                <path fill="#E96E48" stroke="none" d="M87.5 90.55L87.5 74.75 -13 74.75 -13 90.55 67.8 90.55Q46.35 116.85 34.05 144.5 21.7 172.15 17.4 207.25L15.75 223.25 35.85 223.25 37.5 207.25Q41.7 172.05 51.15 147.35 60.55 122.55 87.5 90.55Z"/>
              </g>
            </g>
            <animate attributeName="display" begin="2.792s" repeatCount="indefinite" dur="0.833s" keyTimes="0;.1;.2;1" values="none;inline;none;none"/>
          </g>
          <g>
            <g>
              <g id="Layer25_0_FILL">
                <path fill="#E96E48" stroke="none" d="M75.55 78.7Q70.65 76.05 63.2 74.3 55.65 72.6 48 72.6 24.45 72.6 8.55 90.35 -7.4 108.1 -7.4 136.65L-7.4 165Q-7.4 193.75 6.9 209.6 21.2 225.4 43 225.4 64 225.4 76.65 210.9 89.2 196.3 89.2 173.25 89.2 152.15 77.4 138.4 65.55 124.6 45.65 124.6 35.95 124.6 27.6 127.85 19.15 131.05 12.6 136.75L12.6 134.4Q12.6 113.9 22.4 101.15 32.1 88.4 48 88.4 55.35 88.4 60.85 90.05 66.25 91.55 71.25 94.1L75.55 78.7M12.6 166.95L12.6 154.9Q16.4 147.95 23.65 143.8 30.85 139.6 41.15 139.6 54.35 139.6 61.8 149.1 69.1 158.6 69.1 173.25 69.1 188.65 62.3 199.2 55.35 209.6 43 209.6 29.95 209.6 21.3 198.45 12.6 187.35 12.6 166.95Z"/>
              </g>
            </g>
            <animate attributeName="display" begin="2.792s" repeatCount="indefinite" dur="0.833s" keyTimes="0;.1;1" values="inline;none;none"/>
          </g>
        </g>
        <animate attributeName="display" repeatCount="indefinite" dur="8.542s" keyTimes="0;.327;.507;1" values="none;inline;none;none"/>
      </g>
      <g>
        <g id="Symbol 2_9.0">
          <g>
            <g id="Layer23_0_FILL">
              <path fill="#E96E48" stroke="none" d="M432.3 87.7Q432.3 68.1 419.95 57.5 407.5 46.8 387.9 46.8 368 46.8 356 57.5 343.85 68.1 343.85 87.7 343.85 99.3 350.15 108.1 356.5 116.75 367.6 121.05 354.75 125.55 347.2 135.1 339.65 144.7 339.65 157.25 339.65 177.85 353 188.8 366.3 199.6 388.1 199.6 409.55 199.6 423 188.8 436.35 177.85 436.35 157.25 436.35 144.7 428.7 135.1 420.95 125.55 408.1 121.05 419.2 116.75 425.75 108.1 432.3 99.3 432.3 87.7M405.35 69.85Q412.2 77.1 412.2 88.1 412.2 99.4 405.45 106.25 398.7 113.1 388.1 113.1 377.3 113.1 370.65 106.25 363.95 99.4 363.95 88.1 363.95 76.55 370.55 69.65 377.2 62.6 387.9 62.6 398.4 62.6 405.35 69.85M367.6 136.75Q375.35 128.9 387.9 128.9 400.25 128.9 408.3 136.75 416.35 144.6 416.35 156.75 416.35 169.3 408.5 176.55 400.65 183.8 388.1 183.8 375.25 183.8 367.5 176.65 359.75 169.4 359.75 156.75 359.75 144.6 367.6 136.75Z"/>
            </g>
          </g>
        </g>
        <animate attributeName="display" repeatCount="indefinite" dur="8.542s" keyTimes="0;.059;1" values="inline;none;none"/>
      </g>
      <g display="none">
        <g id="Symbol 2_8.12">
          <g>
            <g id="Layer22_0_FILL">
              <path fill="#E96E48" stroke="none" d="M351.2 61.05Q337.7 75.35 337.7 97.7 337.7 121.05 350.35 134.4 363 147.65 384.55 147.65 393.7 147.65 401.25 144 408.7 140.2 413.7 133L413.7 139.7Q413.7 161.65 404.95 172.65 396.05 183.8 381.4 183.8 372.9 183.8 366.5 182.55 359.95 181.25 353.95 178.05L350.9 193.55Q357.3 196.65 365.45 198.05 373.5 199.6 381.4 199.6 404.75 199.6 419.3 184.1 433.8 168.6 433.8 139.5L433.8 104.1Q433.8 75.85 420.45 61.35 407 46.8 383.7 46.8 364.55 46.8 351.2 61.05M365.55 72.4Q373.3 62.6 384.35 62.6 398.7 62.6 406.25 72.6 413.7 82.6 413.7 101.95L413.7 114.8Q410.45 122.25 403.1 127.05 395.65 131.85 384.55 131.85 372.2 131.85 365.05 122.35 357.8 112.9 357.8 97.7 357.8 82.3 365.55 72.4Z"/>
            </g>
          </g>
        </g>
        <animate attributeName="display" repeatCount="indefinite" dur="8.542s" keyTimes="0;.059;.117;1" values="none;inline;none;none"/>
      </g>
      <g display="none">
        <g id="Symbol 2_7.24">
          <g>
            <g id="Layer21_0_FILL">
              <path fill="#E96E48" stroke="none" d="M388 46.8Q366.2 46.8 353.55 62.1 340.8 77.3 340.8 105.65L340.8 140.85Q340.8 169.2 353.55 184.4 366.3 199.6 388.2 199.6 410.15 199.6 422.8 184.5 435.35 169.3 435.35 140.85L435.35 105.65Q435.35 77.3 422.7 62.1 409.95 46.8 388 46.8M367.8 72.3Q374.75 62.6 388 62.6 401.25 62.6 408.3 72.3 415.25 82.1 415.25 101.35L415.25 144.8Q415.25 164.2 408.4 174 401.45 183.8 388.2 183.8 374.95 183.8 367.9 174 360.85 164.1 360.85 144.8L360.85 101.35Q360.85 82.1 367.8 72.3Z"/>
            </g>
          </g>
        </g>
        <animate attributeName="display" repeatCount="indefinite" dur="8.542s" keyTimes="0;.117;.171;1" values="none;inline;none;none"/>
      </g>
      <g display="none">
        <g id="Symbol 2_6.35">
          <g>
            <g id="Layer20_0_FILL">
              <path fill="#E96E48" stroke="none" d="M348.15 54.45L348.15 68.9 378.55 68.5 378.55 197.45 398.65 197.45 398.65 48.95 348.15 54.45Z"/>
            </g>
          </g>
        </g>
        <animate attributeName="display" repeatCount="indefinite" dur="8.542s" keyTimes="0;.171;.215;1" values="none;inline;none;none"/>
      </g>
      <g display="none">
        <g id="Symbol 2_5.44">
          <g>
            <g id="Layer19_0_FILL">
              <path fill="#E96E48" stroke="none" d="M432.4 88.15Q432.4 70.1 420.55 58.45 408.6 46.75 388.6 46.75 365.15 46.75 351.9 59.8 338.65 72.85 339.15 92L339.35 92.65 358.65 92.65Q358.65 78.35 365.95 70.5 373.2 62.55 388.6 62.55 399.35 62.55 405.85 70.2 412.3 77.75 412.3 88.85 412.3 97.85 407.7 106.4 403 115 389.95 129.55L341.3 183.55 341.3 197.4 437.6 197.4 437.6 181.6 366.2 181.6 365.95 181.1 405.05 138.65Q418 124.65 425.25 112.55 432.4 100.3 432.4 88.15Z"/>
            </g>
          </g>
        </g>
        <animate attributeName="display" repeatCount="indefinite" dur="8.542s" keyTimes="0;.215;.254;1" values="none;inline;none;none"/>
      </g>
      <g display="none">
        <g id="Symbol 2_4.52">
          <g>
            <g id="Layer18_0_FILL">
              <path fill="#E96E48" stroke="none" d="M430.95 89Q430.95 68.7 418.7 57.8 406.45 46.8 385.85 46.8 365.35 46.8 352.7 58.6 339.95 70.35 340.45 87.2L340.65 87.8 359.95 87.8Q359.95 76.35 367.1 69.55 374.15 62.6 385.85 62.6 398.2 62.6 404.55 69.2 410.85 75.85 410.85 88.6 410.85 100.55 405.35 107.25 399.75 113.9 386.35 113.9L368.85 113.9 368.85 129.7 386.35 129.7Q400.25 129.7 406.65 136.25 413.1 142.75 413.1 156.45 413.1 170 405.85 176.85 398.6 183.8 385.85 183.8 373.3 183.8 366.2 176.85 358.95 170 358.95 158.3L339.75 158.3 339.45 158.9Q338.95 177.65 352.3 188.7 365.55 199.6 385.85 199.6 406.55 199.6 419.95 187.95 433.2 176.35 433.2 156.05 433.2 144.4 427.7 135 422.1 125.65 408.7 121.25 419.85 116.45 425.45 107.4 430.95 98.2 430.95 89Z"/>
            </g>
          </g>
        </g>
        <animate attributeName="display" repeatCount="indefinite" dur="8.542s" keyTimes="0;.254;.288;1" values="none;inline;none;none"/>
      </g>
      <g display="none">
        <g id="Symbol 2_3.59">
          <g>
            <g id="Layer17_0_FILL">
              <path fill="#E96E48" stroke="none" d="M334.8 151.95L334.8 163.3 401.5 163.3 401.5 197.45 421.5 197.45 421.5 163.3 442 163.3 442 147.45 421.5 147.45 421.5 48.95 400.3 48.95 334.8 151.95M400.9 77.7L401.5 77.8 401.5 147.45 356.25 147.45 398.95 82.8 400.9 77.7Z"/>
            </g>
          </g>
        </g>
        <animate attributeName="display" repeatCount="indefinite" dur="8.542s" keyTimes="0;.288;.312;1" values="none;inline;none;none"/>
      </g>
      <g display="none">
        <g id="Symbol 2_2.64">
          <g>
            <g id="Layer16_0_FILL">
              <path fill="#E96E48" stroke="none" d="M430 66.8L430 48.95 355.6 48.95 347.05 130.45 363.8 132.15Q366.25 124.8 371.55 121.25 376.85 117.7 388.65 117.7 401.2 117.7 408.35 126.85 415.5 136.05 415.5 150.3 415.5 165.85 408.45 174.8 401.4 183.8 388.65 183.8 377.55 183.8 370.6 177.15 363.6 170.5 363.6 158.4L345.4 158.4 345.2 159Q344.7 179 357.25 189.3 369.8 199.6 388.65 199.6 411.6 199.6 423.65 186.05 435.6 172.45 435.6 150.1 435.6 127.15 423.85 113.6 412.05 100.05 391.55 100.25 384 100.45 378.25 102.8 372.45 105.05 367.75 108.5L372.65 66.8 430 66.8Z"/>
            </g>
          </g>
        </g>
        <animate attributeName="display" repeatCount="indefinite" dur="8.542s" keyTimes="0;.312;.327;1" values="none;inline;none;none"/>
      </g>
      <g display="none">
        <g id="Symbol 2_1.95">
          <g>
            <g id="Layer15_0_FILL">
              <path fill="#E96E48" stroke="none" d="M287.7 48.95L266.5 48.95 201 151.95 201 163.3 267.7 163.3 267.7 197.45 287.7 197.45 287.7 163.3 308.2 163.3 308.2 147.45 287.7 147.45 287.7 48.95M267.1 77.7L267.7 77.8 267.7 147.45 222.45 147.45 265.15 82.8 267.1 77.7Z"/>
            </g>
          </g>
        </g>
        <animate attributeName="display" repeatCount="indefinite" dur="8.542s" keyTimes="0;.463;1" values="none;inline;inline"/>
      </g>
      <g display="none">
        <g id="Symbol 2_1.75">
          <g>
            <g id="Layer14_0_FILL">
              <path fill="#E96E48" stroke="none" d="M252 62.6Q264.35 62.6 270.7 69.2 277 75.85 277 88.6 277 100.55 271.5 107.25 265.9 113.9 252.5 113.9L235 113.9 235 129.7 252.5 129.7Q266.4 129.7 272.8 136.25 279.25 142.75 279.25 156.45 279.25 170 272 176.85 264.75 183.8 252 183.8 239.45 183.8 232.35 176.85 225.1 170 225.1 158.3L205.9 158.3 205.6 158.9Q205.1 177.65 218.45 188.7 231.7 199.6 252 199.6 272.7 199.6 286.1 187.95 299.35 176.35 299.35 156.05 299.35 144.4 293.85 135 288.25 125.65 274.85 121.25 286 116.45 291.6 107.4 297.1 98.2 297.1 89 297.1 68.7 284.85 57.8 272.6 46.8 252 46.8 231.5 46.8 218.85 58.6 206.1 70.35 206.6 87.2L206.8 87.8 226.1 87.8Q226.1 76.35 233.25 69.55 240.3 62.6 252 62.6Z"/>
            </g>
          </g>
        </g>
        <animate attributeName="display" repeatCount="indefinite" dur="8.542s" keyTimes="0;.366;.463;1" values="none;inline;none;none"/>
      </g>
      <g display="none">
        <g id="Symbol 2_1.24">
          <g>
            <g id="Layer13_0_FILL">
              <path fill="#E96E48" stroke="none" d="M254.75 62.55Q265.5 62.55 272 70.2 278.45 77.75 278.45 88.85 278.45 97.85 273.85 106.4 269.15 115 256.1 129.55L207.45 183.55 207.45 197.4 303.75 197.4 303.75 181.6 232.35 181.6 232.1 181.1 271.2 138.65Q284.15 124.65 291.4 112.55 298.55 100.3 298.55 88.15 298.55 70.1 286.7 58.45 274.75 46.75 254.75 46.75 231.3 46.75 218.05 59.8 204.8 72.85 205.3 92L205.5 92.65 224.8 92.65Q224.8 78.35 232.1 70.5 239.35 62.55 254.75 62.55Z"/>
            </g>
          </g>
        </g>
        <animate attributeName="display" repeatCount="indefinite" dur="8.542s" keyTimes="0;.117;.366;1" values="none;inline;none;none"/>
      </g>
      <g>
        <g id="Symbol 2_1">
          <g>
            <g id="Layer12_0_FILL">
              <path fill="#E96E48" stroke="none" d="M214.35 54.45L214.35 68.9 244.75 68.5 244.75 197.45 264.85 197.45 264.85 48.95 214.35 54.45Z"/>
            </g>
          </g>
        </g>
        <animate attributeName="display" repeatCount="indefinite" dur="8.542s" keyTimes="0;.117;1" values="inline;none;none"/>
      </g>
    </g>
    <g>
      <g id="Layer1_0_FILL">
        <path fill="#E96E48" stroke="none" d="M731.2 109.4Q732.45 110.65 734.25 110.65 736.05 110.65 737.35 109.4 738.65 108.1 738.65 106.3 738.65 104.5 737.35 103.2 736.05 101.95 734.25 101.95 732.45 101.95 731.2 103.2 729.9 104.5 729.9 106.3 729.9 108.1 731.2 109.4Z"/>
      </g>
    </g>
  </g>
</svg>