<?xml version="1.0" encoding="UTF-8" standalone="no"?><!DOCTYPE svg PUBLIC "-//W3C//DTD SVG 1.1//EN" "http://www.w3.org/Graphics/SVG/1.1/DTD/svg11.dtd"><svg width="100%" height="100%" viewBox="0 0 1285 309" version="1.1" xmlns="http://www.w3.org/2000/svg" xmlns:xlink="http://www.w3.org/1999/xlink" xml:space="preserve" xmlns:serif="http://www.serif.com/" style="fill-rule:evenodd;clip-rule:evenodd;stroke-linejoin:round;stroke-miterlimit:1.41421;"><rect id="Artboard-1" serif:id="Artboard 1" x="0" y="0" width="1285" height="309" style="fill:none;"/><clipPath id="_clip1"><rect id="Artboard-11" serif:id="Artboard 1" x="0" y="0" width="1285" height="309"/></clipPath><g clip-path="url(#_clip1)"><g id="Layer-1" serif:id="Layer 1"><g><path d="M1110.21,247.728c-4.707,1.065 -7.659,5.744 -6.593,10.451c1.066,4.706 5.744,7.658 10.45,6.592c4.706,-1.064 7.657,-5.743 6.592,-10.449c-0.918,-4.058 -4.522,-6.811 -8.514,-6.811c-0.639,0 -1.287,0.07 -1.935,0.217Z" style="fill:url(#_Radial2);fill-rule:nonzero;"/><path d="M1109.12,242.926c-7.346,1.663 -11.97,8.993 -10.307,16.339l0,0.003c0.805,3.557 2.948,6.588 6.035,8.535c2.209,1.396 4.712,2.114 7.261,2.114c1.012,0 2.032,-0.114 3.042,-0.344c3.56,-0.806 6.592,-2.949 8.538,-6.035c1.947,-3.085 2.577,-6.744 1.771,-10.3c-0.805,-3.56 -2.948,-6.595 -6.035,-8.542c-2.209,-1.392 -4.713,-2.116 -7.263,-2.116c-1.012,0 -2.031,0.114 -3.042,0.346Zm0.981,16.549c-0.862,-0.544 -1.46,-1.389 -1.684,-2.381c-0.466,-2.053 0.828,-4.1 2.878,-4.564c0.99,-0.221 2.013,-0.047 2.874,0.494c0.862,0.544 1.461,1.392 1.687,2.387c0.224,0.992 0.048,2.014 -0.494,2.872c-0.545,0.862 -1.391,1.459 -2.385,1.687c-0.28,0.064 -0.562,0.096 -0.843,0.096c-0.712,0 -1.414,-0.203 -2.033,-0.591Z" style="fill:url(#_Linear3);fill-rule:nonzero;"/><path d="M930.343,247.482c-4.707,1.066 -7.659,5.745 -6.594,10.452c1.066,4.705 5.745,7.657 10.452,6.592c4.706,-1.065 7.657,-5.744 6.592,-10.449c-0.919,-4.058 -4.522,-6.811 -8.514,-6.811c-0.639,0 -1.287,0.07 -1.936,0.216Z" style="fill:url(#_Radial4);fill-rule:nonzero;"/><path d="M929.255,242.683c-3.559,0.804 -6.59,2.947 -8.538,6.033c-1.946,3.085 -2.576,6.745 -1.769,10.302c0.804,3.559 2.948,6.595 6.035,8.542c2.209,1.391 4.711,2.113 7.263,2.113c1.012,0 2.032,-0.114 3.042,-0.344c7.347,-1.663 11.969,-8.993 10.306,-16.342c-1.433,-6.33 -7.079,-10.648 -13.309,-10.647c-1,0 -2.015,0.111 -3.03,0.343Zm0.983,16.548c-0.861,-0.545 -1.462,-1.392 -1.686,-2.384l0,-0.003c-0.225,-0.992 -0.05,-2.014 0.494,-2.872c0.543,-0.861 1.39,-1.46 2.383,-1.686c0.282,-0.063 0.565,-0.094 0.844,-0.094c1.741,0 3.317,1.203 3.718,2.969c0.463,2.054 -0.826,4.101 -2.877,4.564c-0.282,0.063 -0.566,0.094 -0.848,0.094c-0.711,0 -1.411,-0.198 -2.028,-0.588Z" style="fill:url(#_Linear5);fill-rule:nonzero;"/><path d="M1038.34,200.645c-12.439,2.816 -20.241,15.181 -17.426,27.62c2.817,12.439 15.182,20.241 27.621,17.425c12.438,-2.815 20.24,-15.181 17.424,-27.62c-2.427,-10.723 -11.951,-18 -22.501,-18c-1.688,0.001 -3.402,0.188 -5.118,0.575Z" style="fill:url(#_Radial6);fill-rule:nonzero;"/><path d="M1037.25,195.843c-7.299,1.651 -13.519,6.048 -17.511,12.375c-3.994,6.329 -5.283,13.835 -3.629,21.134l0,-0.003c2.939,12.996 14.525,21.838 27.32,21.838c2.042,0 4.114,-0.223 6.188,-0.695c15.066,-3.409 24.55,-18.442 21.138,-33.508c-1.65,-7.3 -6.044,-13.517 -12.375,-17.51c-4.53,-2.857 -9.659,-4.335 -14.89,-4.335c-2.075,0 -4.166,0.233 -6.241,0.704Zm-3.509,42.689c-4.106,-2.588 -6.956,-6.622 -8.027,-11.354l0,-0.003c-1.073,-4.732 -0.236,-9.597 2.353,-13.701c2.589,-4.103 6.623,-6.955 11.356,-8.027c1.345,-0.303 2.7,-0.455 4.046,-0.455c3.391,0 6.72,0.956 9.659,2.809c4.104,2.592 6.953,6.622 8.026,11.354c1.069,4.735 0.233,9.603 -2.355,13.707c-2.59,4.104 -6.622,6.955 -11.354,8.027c-1.344,0.304 -2.699,0.454 -4.046,0.454c-3.39,0 -6.721,-0.954 -9.658,-2.811Z" style="fill:url(#_Linear7);fill-rule:nonzero;"/><path d="M987.879,272.215c-7.565,1.712 -12.309,9.231 -10.597,16.796c1.712,7.564 9.232,12.309 16.796,10.596c7.564,-1.712 12.308,-9.231 10.596,-16.796c-1.476,-6.521 -7.266,-10.945 -13.682,-10.945c-1.027,0 -2.07,0.113 -3.113,0.349Z" style="fill:url(#_Radial8);fill-rule:nonzero;"/><path d="M986.791,267.412c-10.198,2.308 -16.621,12.485 -14.311,22.684c1.99,8.798 9.834,14.786 18.499,14.786c1.381,0 2.783,-0.155 4.185,-0.472c10.2,-2.307 16.621,-12.485 14.312,-22.685c-1.992,-8.795 -9.844,-14.782 -18.506,-14.781c-1.378,0 -2.779,0.152 -4.179,0.468Zm-4.708,20.513c-1.108,-4.906 1.979,-9.798 6.88,-10.909c0.675,-0.15 1.348,-0.224 2.012,-0.224c4.168,0 7.939,2.879 8.898,7.106c1.108,4.905 -1.979,9.797 -6.881,10.909c-0.67,0.15 -1.339,0.222 -2,0.222c-4.168,0 -7.949,-2.872 -8.909,-7.104Z" style="fill:url(#_Linear9);fill-rule:nonzero;"/><g><path d="M1158.4,16.378l-9.881,30.612c-6.017,18.639 -22.672,30.741 -42.258,30.703l-32.168,-0.062c-5.198,-0.011 -9.62,3.196 -11.226,8.139c-1.605,4.943 0.088,10.135 4.299,13.183l26.059,18.857c15.868,11.483 22.23,31.061 16.142,49.676l-9.999,30.576c-1.616,4.941 0.067,10.136 4.272,13.191c4.206,3.054 9.666,3.048 13.865,-0.014l25.99,-18.959c15.822,-11.542 36.407,-11.542 52.229,0l25.992,18.959c4.197,3.062 9.658,3.068 13.863,0.014c4.205,-3.055 5.888,-8.25 4.273,-13.191l-9.999,-30.576c-6.089,-18.615 0.273,-38.193 16.141,-49.676l26.06,-18.857c4.211,-3.048 5.903,-8.24 4.298,-13.183c-1.607,-4.943 -6.028,-8.15 -11.226,-8.139l-32.168,0.062c-19.585,0.038 -36.241,-12.064 -42.257,-30.703l-9.882,-30.612c-1.596,-4.947 -6.011,-8.161 -11.209,-8.161c-5.198,0 -9.614,3.214 -11.21,8.161Z" style="fill:url(#_Radial10);fill-rule:nonzero;"/><path d="M1153.72,14.867l-9.884,30.61c-5.353,16.589 -20.058,27.291 -37.481,27.291l-0.08,0l-32.168,-0.063l-0.035,0c-7.372,0 -13.605,4.531 -15.884,11.547c-2.281,7.022 0.111,14.358 6.094,18.692l26.06,18.856c14.144,10.236 19.775,27.565 14.349,44.158l-9.999,30.574c-2.296,7.022 0.082,14.365 6.06,18.705c2.984,2.167 6.4,3.249 9.818,3.249c3.426,0 6.853,-1.088 9.839,-3.269l25.992,-18.96c14.104,-10.284 32.328,-10.284 46.426,0l25.99,18.96c5.963,4.355 13.681,4.361 19.661,0.02c5.976,-4.344 8.353,-11.686 6.057,-18.705l-9.999,-30.574c-5.427,-16.593 0.206,-33.922 14.349,-44.158l26.061,-18.859c5.981,-4.331 8.374,-11.667 6.094,-18.689c-2.279,-7.019 -8.512,-11.547 -15.886,-11.547l-0.035,0l-32.167,0.063l-0.079,0c-17.421,0 -32.13,-10.705 -37.484,-27.291l-9.882,-30.61c-2.267,-7.029 -8.507,-11.573 -15.894,-11.573c-7.388,0 -13.627,4.544 -15.893,11.573Zm-47.365,67.752c21.778,0 40.162,-13.384 46.853,-34.117l9.884,-30.61c0.945,-2.932 3.441,-4.748 6.521,-4.748c3.079,0 5.578,1.816 6.523,4.748l9.882,30.61c6.692,20.733 25.074,34.117 46.853,34.117l0.101,0l32.168,-0.063l0.014,0c3.073,0 5.569,1.812 6.519,4.734c0.951,2.928 -0.009,5.87 -2.501,7.674l-26.06,18.856c-17.678,12.796 -24.719,34.461 -17.935,55.197l9.999,30.573c0.956,2.928 0.003,5.87 -2.485,7.68c-2.493,1.803 -5.584,1.803 -8.071,-0.007l-25.99,-18.959c-17.623,-12.859 -40.404,-12.867 -58.033,0l-25.99,18.959c-2.481,1.81 -5.576,1.814 -8.069,0.007c-2.492,-1.81 -3.444,-4.752 -2.487,-7.68l9.999,-30.573c6.784,-20.736 -0.257,-42.401 -17.934,-55.197l-26.059,-18.853c-2.495,-1.807 -3.453,-4.749 -2.503,-7.677c0.95,-2.922 3.446,-4.734 6.518,-4.734l32.283,0.063Z" style="fill:url(#_Linear11);fill-rule:nonzero;"/></g><path d="M132.521,220.778l0,84.325l8.324,0l0,-27.264l23.162,0c1.367,0 3.337,-0.079 5.911,-0.241l18.217,27.505l9.651,0l-20.267,-29.073c6.273,-1.848 11.098,-5.106 14.475,-9.772c3.379,-4.663 5.068,-10.495 5.068,-17.491c0,-8.928 -2.876,-15.823 -8.626,-20.69c-5.751,-4.865 -13.894,-7.299 -24.429,-7.299l-31.486,0Zm8.324,7.48l23.162,0c8.041,0 14.236,1.77 18.579,5.308c4.342,3.54 6.514,8.687 6.514,15.442c0,6.917 -2.172,12.205 -6.514,15.863c-4.343,3.661 -10.538,5.489 -18.579,5.489l-23.162,0l0,-42.102Z" style="fill:url(#_Linear12);fill-rule:nonzero;"/><path d="M248.798,220.778l0,84.325l58.026,0l0,-7.479l-49.702,0l0,-31.728l43.067,0l0,-7.479l-43.067,0l0,-30.159l48.134,0l0,-7.48l-56.458,0Z" style="fill:url(#_Linear13);fill-rule:nonzero;"/><path d="M412.726,220.778l-29.918,75.156l-30.039,-75.156l-8.926,0l34.381,84.325l8.686,0l34.623,-84.325l-8.807,0Z" style="fill:url(#_Linear14);fill-rule:nonzero;"/><rect x="464.703" y="220.777" width="8.325" height="84.326" style="fill:url(#_Linear15);"/><path d="M528.622,220.778l0,84.325l58.027,0l0,-7.479l-49.702,0l0,-31.728l43.068,0l0,-7.479l-43.068,0l0,-30.159l48.134,0l0,-7.48l-56.459,0Z" style="fill:url(#_Linear16);fill-rule:nonzero;"/><path d="M736.946,220.658l-23.887,75.64l-24.006,-75.64l-8.444,0l-23.887,75.64l-24.007,-75.64l-9.047,0l28.47,84.445l8.564,0l24.007,-73.95l23.767,73.95l8.685,0l28.592,-84.445l-8.807,0Z" style="fill:url(#_Linear17);fill-rule:nonzero;"/><path d="M798.091,222.528c-4.342,1.73 -7.72,4.203 -10.132,7.419c-2.414,3.217 -3.621,6.958 -3.621,11.219c0,4.988 1.207,9.029 3.621,12.124c2.412,3.097 5.346,5.429 8.805,6.997c3.457,1.568 8.041,3.239 13.753,5.007c5.067,1.61 9.006,3.014 11.822,4.221c2.815,1.207 5.187,2.937 7.117,5.188c1.931,2.253 2.896,5.147 2.896,8.687c0,4.423 -1.891,7.942 -5.67,10.555c-3.781,2.614 -8.887,3.921 -15.321,3.921c-4.825,0 -9.733,-1.045 -14.717,-3.137c-4.987,-2.091 -9.37,-4.986 -13.149,-8.686l-3.861,6.877c4.02,3.86 8.824,6.956 14.416,9.288c5.589,2.334 11.319,3.498 17.191,3.498c5.951,0 11.219,-0.944 15.803,-2.834c4.584,-1.889 8.143,-4.565 10.677,-8.023c2.532,-3.456 3.8,-7.438 3.8,-11.943c0,-5.146 -1.228,-9.289 -3.68,-12.425c-2.455,-3.137 -5.429,-5.529 -8.928,-7.178c-3.498,-1.647 -8.103,-3.318 -13.812,-5.007c-4.906,-1.526 -8.768,-2.914 -11.581,-4.162c-2.816,-1.245 -5.188,-2.955 -7.117,-5.126c-1.931,-2.173 -2.896,-4.986 -2.896,-8.446c0,-3.939 1.749,-7.056 5.248,-9.348c3.499,-2.293 8.143,-3.44 13.934,-3.44c3.618,0 7.478,0.587 11.58,1.751c4.102,1.166 7.881,2.836 11.34,5.006l3.619,-7.118c-3.539,-2.251 -7.621,-4.06 -12.244,-5.428c-4.626,-1.368 -9.229,-2.052 -13.813,-2.052c-5.711,0 -10.736,0.866 -15.08,2.595Z" style="fill:url(#_Linear18);fill-rule:nonzero;"/><path d="M27.129,75.083c-5.651,2.251 -10.048,5.47 -13.187,9.654c-3.139,4.187 -4.708,9.052 -4.708,14.599c0,6.492 1.569,11.749 4.708,15.776c3.139,4.029 6.958,7.064 11.459,9.106c4.499,2.039 10.464,4.212 17.895,6.514c6.594,2.094 11.72,3.923 15.383,5.491c3.662,1.573 6.75,3.825 9.261,6.752c2.512,2.932 3.767,6.699 3.767,11.302c0,5.755 -2.459,10.336 -7.377,13.735c-4.919,3.403 -11.564,5.101 -19.935,5.101c-6.278,0 -12.663,-1.36 -19.15,-4.081c-6.49,-2.721 -12.192,-6.488 -17.11,-11.301l-5.023,8.947c5.231,5.022 11.482,9.052 18.757,12.087c7.273,3.037 14.729,4.553 22.369,4.553c7.743,0 14.598,-1.231 20.564,-3.689c5.965,-2.458 10.595,-5.94 13.892,-10.44c3.296,-4.497 4.944,-9.68 4.944,-15.541c0,-6.696 -1.597,-12.085 -4.787,-16.168c-3.194,-4.081 -7.065,-7.193 -11.617,-9.339c-4.552,-2.144 -10.543,-4.318 -17.973,-6.515c-6.384,-1.986 -11.407,-3.789 -15.069,-5.415c-3.664,-1.622 -6.75,-3.846 -9.262,-6.67c-2.511,-2.828 -3.767,-6.488 -3.767,-10.988c0,-5.126 2.277,-9.184 6.828,-12.169c4.554,-2.981 10.596,-4.472 18.131,-4.472c4.709,0 9.733,0.762 15.069,2.277c5.337,1.518 10.255,3.688 14.755,6.513l4.71,-9.262c-4.607,-2.928 -9.916,-5.283 -15.933,-7.062c-6.019,-1.779 -12.009,-2.667 -17.973,-2.667c-7.433,0 -13.97,1.123 -19.621,3.372Z" style="fill:url(#_Linear19);fill-rule:nonzero;"/><path d="M132.747,72.649l0,9.889l36.261,0l0,99.994l10.83,0l0,-99.994l36.262,0l0,-9.889l-83.353,0Z" style="fill:url(#_Linear20);fill-rule:nonzero;"/><path d="M295.665,72.807l-49.448,109.725l11.617,0l12.871,-29.198l60.906,0l13.03,29.198l11.771,0l-49.446,-109.725l-11.301,0Zm5.336,11.46l26.373,59.335l-52.43,0l26.057,-59.335Z" style="fill:url(#_Linear21);fill-rule:nonzero;"/><path d="M412.274,72.807l0,109.725l10.831,0l0,-35.476l30.138,0c1.777,0 4.342,-0.104 7.693,-0.313l23.701,35.789l12.558,0l-26.37,-37.831c8.16,-2.405 14.44,-6.645 18.835,-12.714c4.397,-6.068 6.593,-13.656 6.593,-22.763c0,-11.614 -3.742,-20.585 -11.223,-26.92c-7.482,-6.328 -18.079,-9.497 -31.787,-9.497l-40.969,0Zm10.831,9.731l30.138,0c10.464,0 18.522,2.305 24.174,6.909c5.652,4.606 8.477,11.301 8.477,20.094c0,8.999 -2.825,15.88 -8.477,20.639c-5.652,4.763 -13.71,7.143 -24.174,7.143l-30.138,0l0,-54.785Z" style="fill:url(#_Linear22);fill-rule:nonzero;"/><path d="M563.572,72.807l0,109.725l10.832,0l0,-48.033l51.643,0l0,-9.733l-51.643,0l0,-42.228l57.922,0l0,-9.731l-68.754,0Z" style="fill:url(#_Linear23);fill-rule:nonzero;"/><rect x="689.284" y="72.807" width="10.831" height="109.725" style="fill:url(#_Linear24);"/><path d="M784.544,75.083c-5.651,2.251 -10.045,5.47 -13.187,9.654c-3.137,4.187 -4.708,9.052 -4.708,14.599c0,6.492 1.571,11.749 4.708,15.776c3.142,4.029 6.96,7.064 11.459,9.106c4.5,2.039 10.465,4.212 17.897,6.514c6.591,2.094 11.717,3.923 15.384,5.491c3.662,1.573 6.749,3.825 9.26,6.752c2.511,2.932 3.766,6.699 3.766,11.302c0,5.755 -2.458,10.336 -7.376,13.735c-4.921,3.403 -11.565,5.101 -19.935,5.101c-6.28,0 -12.664,-1.36 -19.152,-4.081c-6.488,-2.721 -12.191,-6.488 -17.111,-11.301l-5.022,8.947c5.232,5.022 11.487,9.052 18.76,12.087c7.271,3.037 14.727,4.553 22.368,4.553c7.744,0 14.598,-1.231 20.564,-3.689c5.962,-2.458 10.594,-5.94 13.891,-10.44c3.297,-4.497 4.945,-9.68 4.945,-15.541c0,-6.696 -1.597,-12.085 -4.788,-16.168c-3.195,-4.081 -7.065,-7.193 -11.615,-9.339c-4.553,-2.144 -10.546,-4.318 -17.974,-6.515c-6.386,-1.986 -11.408,-3.789 -15.068,-5.415c-3.667,-1.622 -6.753,-3.846 -9.263,-6.67c-2.511,-2.828 -3.767,-6.488 -3.767,-10.988c0,-5.126 2.276,-9.184 6.828,-12.169c4.552,-2.981 10.594,-4.472 18.129,-4.472c4.71,0 9.733,0.762 15.072,2.277c5.335,1.518 10.252,3.688 14.755,6.513l4.707,-9.262c-4.604,-2.928 -9.915,-5.283 -15.933,-7.062c-6.018,-1.779 -12.006,-2.667 -17.972,-2.667c-7.43,0 -13.972,1.123 -19.622,3.372Z" style="fill:url(#_Linear25);fill-rule:nonzero;"/><path d="M985.133,72.807l0,50.233l-68.598,0l0,-50.233l-10.832,0l0,109.725l10.832,0l0,-49.762l68.598,0l0,49.762l10.83,0l0,-109.725l-10.83,0Z" style="fill:url(#_Linear26);fill-rule:nonzero;"/></g></g></g><defs><radialGradient id="_Radial2" cx="0" cy="0" r="1" gradientUnits="userSpaceOnUse" gradientTransform="matrix(6.99247,0,0,6.99247,1112.14,256.25)"><stop offset="0" style="stop-color:#ffd44c;stop-opacity:1"/><stop offset="1" style="stop-color:#ffc200;stop-opacity:1"/></radialGradient><linearGradient id="_Linear3" x1="0" y1="0" x2="1" y2="0" gradientUnits="userSpaceOnUse" gradientTransform="matrix(0,27.336,-27.336,0,1112.14,242.581)"><stop offset="0" style="stop-color:#7ed026;stop-opacity:1"/><stop offset="1" style="stop-color:#00aeef;stop-opacity:1"/></linearGradient><radialGradient id="_Radial4" cx="0" cy="0" r="1" gradientUnits="userSpaceOnUse" gradientTransform="matrix(7.3011,0,0,7.3011,932.271,256.005)"><stop offset="0" style="stop-color:#ffd44c;stop-opacity:1"/><stop offset="1" style="stop-color:#ffc200;stop-opacity:1"/></radialGradient><linearGradient id="_Linear5" x1="0" y1="0" x2="1" y2="0" gradientUnits="userSpaceOnUse" gradientTransform="matrix(0,27.3335,-27.3335,0,932.269,242.339)"><stop offset="0" style="stop-color:#7ed026;stop-opacity:1"/><stop offset="1" style="stop-color:#00aeef;stop-opacity:1"/></linearGradient><radialGradient id="_Radial6" cx="0" cy="0" r="1" gradientUnits="userSpaceOnUse" gradientTransform="matrix(20.4199,0,0,20.4199,1043.43,223.167)"><stop offset="0" style="stop-color:#ffd44c;stop-opacity:1"/><stop offset="1" style="stop-color:#ffc200;stop-opacity:1"/></radialGradient><linearGradient id="_Linear7" x1="0" y1="0" x2="1" y2="0" gradientUnits="userSpaceOnUse" gradientTransform="matrix(0,56.0478,-56.0478,0,1043.43,195.139)"><stop offset="0" style="stop-color:#7ed026;stop-opacity:1"/><stop offset="1" style="stop-color:#00aeef;stop-opacity:1"/></linearGradient><radialGradient id="_Radial8" cx="0" cy="0" r="1" gradientUnits="userSpaceOnUse" gradientTransform="matrix(11.5995,0,0,11.5995,990.978,285.911)"><stop offset="0" style="stop-color:#ffd44c;stop-opacity:1"/><stop offset="1" style="stop-color:#ffc200;stop-opacity:1"/></radialGradient><linearGradient id="_Linear9" x1="0" y1="0" x2="1" y2="0" gradientUnits="userSpaceOnUse" gradientTransform="matrix(0,37.9373,-37.9373,0,990.978,266.944)"><stop offset="0" style="stop-color:#7ed026;stop-opacity:1"/><stop offset="0.5" style="stop-color:#3fbf8b;stop-opacity:1"/><stop offset="1" style="stop-color:#00aeef;stop-opacity:1"/></linearGradient><radialGradient id="_Radial10" cx="0" cy="0" r="1" gradientUnits="userSpaceOnUse" gradientTransform="matrix(93.341,0,0,93.341,1169.53,110.373)"><stop offset="0" style="stop-color:#ffd44c;stop-opacity:1"/><stop offset="1" style="stop-color:#ffc200;stop-opacity:1"/></radialGradient><linearGradient id="_Linear11" x1="0" y1="0" x2="1" y2="0" gradientUnits="userSpaceOnUse" gradientTransform="matrix(0,215.195,-215.195,0,1169.61,3.29318)"><stop offset="0" style="stop-color:#7ed026;stop-opacity:1"/><stop offset="1" style="stop-color:#00aeef;stop-opacity:1"/></linearGradient><linearGradient id="_Linear12" x1="0" y1="0" x2="1" y2="0" gradientUnits="userSpaceOnUse" gradientTransform="matrix(0,-84.3252,84.3252,0,165.154,305.103)"><stop offset="0" style="stop-color:#ffc200;stop-opacity:1"/><stop offset="1" style="stop-color:#ffd44c;stop-opacity:1"/></linearGradient><linearGradient id="_Linear13" x1="0" y1="0" x2="1" y2="0" gradientUnits="userSpaceOnUse" gradientTransform="matrix(0,-84.3252,84.3252,0,277.811,305.103)"><stop offset="0" style="stop-color:#ffc200;stop-opacity:1"/><stop offset="1" style="stop-color:#ffd44c;stop-opacity:1"/></linearGradient><linearGradient id="_Linear14" x1="0" y1="0" x2="1" y2="0" gradientUnits="userSpaceOnUse" gradientTransform="matrix(0,-84.3252,84.3252,0,382.688,305.103)"><stop offset="0" style="stop-color:#ffc200;stop-opacity:1"/><stop offset="1" style="stop-color:#ffd44c;stop-opacity:1"/></linearGradient><linearGradient id="_Linear15" x1="0" y1="0" x2="1" y2="0" gradientUnits="userSpaceOnUse" gradientTransform="matrix(0,-84.3252,84.3252,0,468.866,305.103)"><stop offset="0" style="stop-color:#ffc200;stop-opacity:1"/><stop offset="1" style="stop-color:#ffd44c;stop-opacity:1"/></linearGradient><linearGradient id="_Linear16" x1="0" y1="0" x2="1" y2="0" gradientUnits="userSpaceOnUse" gradientTransform="matrix(0,-84.3252,84.3252,0,557.636,305.103)"><stop offset="0" style="stop-color:#ffc200;stop-opacity:1"/><stop offset="1" style="stop-color:#ffd44c;stop-opacity:1"/></linearGradient><linearGradient id="_Linear17" x1="0" y1="0" x2="1" y2="0" gradientUnits="userSpaceOnUse" gradientTransform="matrix(0,-84.4457,84.4457,0,684.711,305.103)"><stop offset="0" style="stop-color:#ffc200;stop-opacity:1"/><stop offset="1" style="stop-color:#ffd44c;stop-opacity:1"/></linearGradient><linearGradient id="_Linear18" x1="0" y1="0" x2="1" y2="0" gradientUnits="userSpaceOnUse" gradientTransform="matrix(0,-85.7729,85.7729,0,810.578,305.706)"><stop offset="0" style="stop-color:#ffc200;stop-opacity:1"/><stop offset="1" style="stop-color:#ffd44c;stop-opacity:1"/></linearGradient><linearGradient id="_Linear19" x1="0" y1="0" x2="1" y2="0" gradientUnits="userSpaceOnUse" gradientTransform="matrix(0,111.608,-111.608,0,43.3753,71.7102)"><stop offset="0" style="stop-color:#82c341;stop-opacity:1"/><stop offset="1" style="stop-color:#28abe2;stop-opacity:1"/></linearGradient><linearGradient id="_Linear20" x1="0" y1="0" x2="1" y2="0" gradientUnits="userSpaceOnUse" gradientTransform="matrix(0,109.882,-109.882,0,174.424,72.6496)"><stop offset="0" style="stop-color:#82c341;stop-opacity:1"/><stop offset="1" style="stop-color:#28abe2;stop-opacity:1"/></linearGradient><linearGradient id="_Linear21" x1="0" y1="0" x2="1" y2="0" gradientUnits="userSpaceOnUse" gradientTransform="matrix(0,109.726,-109.726,0,301.315,72.8062)"><stop offset="0" style="stop-color:#82c341;stop-opacity:1"/><stop offset="1" style="stop-color:#28abe2;stop-opacity:1"/></linearGradient><linearGradient id="_Linear22" x1="0" y1="0" x2="1" y2="0" gradientUnits="userSpaceOnUse" gradientTransform="matrix(0,109.726,-109.726,0,454.734,72.8062)"><stop offset="0" style="stop-color:#82c341;stop-opacity:1"/><stop offset="1" style="stop-color:#28abe2;stop-opacity:1"/></linearGradient><linearGradient id="_Linear23" x1="0" y1="0" x2="1" y2="0" gradientUnits="userSpaceOnUse" gradientTransform="matrix(0,109.726,-109.726,0,597.949,72.8062)"><stop offset="0" style="stop-color:#82c341;stop-opacity:1"/><stop offset="1" style="stop-color:#28abe2;stop-opacity:1"/></linearGradient><linearGradient id="_Linear24" x1="0" y1="0" x2="1" y2="0" gradientUnits="userSpaceOnUse" gradientTransform="matrix(0,109.726,-109.726,0,694.699,72.8062)"><stop offset="0" style="stop-color:#82c341;stop-opacity:1"/><stop offset="1" style="stop-color:#28abe2;stop-opacity:1"/></linearGradient><linearGradient id="_Linear25" x1="0" y1="0" x2="1" y2="0" gradientUnits="userSpaceOnUse" gradientTransform="matrix(0,111.608,-111.608,0,800.791,71.7102)"><stop offset="0" style="stop-color:#82c341;stop-opacity:1"/><stop offset="1" style="stop-color:#28abe2;stop-opacity:1"/></linearGradient><linearGradient id="_Linear26" x1="0" y1="0" x2="1" y2="0" gradientUnits="userSpaceOnUse" gradientTransform="matrix(0,109.726,-109.726,0,950.834,72.8062)"><stop offset="0" style="stop-color:#82c341;stop-opacity:1"/><stop offset="1" style="stop-color:#28abe2;stop-opacity:1"/></linearGradient></defs></svg>